<svg aria-hidden="true" xmlns="http://www.w3.org/2000/svg" xmlns:xlink="http://www.w3.org/1999/xlink"><symbol viewBox="0 0 20 24" id="address" xmlns="http://www.w3.org/2000/svg">
<path fill-rule="evenodd" clip-rule="evenodd" d="M10 2C7.87827 2 5.84344 2.84285 4.34315 4.34315C2.84285 5.84344 2 7.87827 2 10C2 13.0981 4.01574 16.1042 6.22595 18.4373C7.31061 19.5822 8.39867 20.5195 9.21668 21.1708C9.52111 21.4133 9.78702 21.6152 10 21.7726C10.213 21.6152 10.4789 21.4133 10.7833 21.1708C11.6013 20.5195 12.6894 19.5822 13.774 18.4373C15.9843 16.1042 18 13.0981 18 10C18 7.87827 17.1571 5.84344 15.6569 4.34315C14.1566 2.84285 12.1217 2 10 2ZM10 23C9.4453 23.8321 9.44505 23.8319 9.44476 23.8317L9.4419 23.8298L9.43524 23.8253L9.41232 23.8098C9.39285 23.7966 9.36508 23.7776 9.32956 23.753C9.25853 23.7038 9.15646 23.6321 9.02779 23.5392C8.77055 23.3534 8.40636 23.0822 7.97082 22.7354C7.10133 22.043 5.93939 21.0428 4.77405 19.8127C2.48426 17.3958 0 13.9019 0 10C5.96046e-08 7.34784 1.05357 4.8043 2.92893 2.92893C4.8043 1.05357 7.34784 0 10 0C12.6522 0 15.1957 1.05357 17.0711 2.92893C18.9464 4.8043 20 7.34784 20 10C20 13.9019 17.5157 17.3958 15.226 19.8127C14.0606 21.0428 12.8987 22.043 12.0292 22.7354C11.5936 23.0822 11.2295 23.3534 10.9722 23.5392C10.8435 23.6321 10.7415 23.7038 10.6704 23.753C10.6349 23.7776 10.6072 23.7966 10.5877 23.8098L10.5648 23.8253L10.5581 23.8298L10.556 23.8312C10.5557 23.8314 10.5547 23.8321 10 23ZM10 23L10.5547 23.8321C10.2188 24.056 9.78066 24.0556 9.44476 23.8317L10 23Z"/>
<path fill-rule="evenodd" clip-rule="evenodd" d="M10 8C8.89543 8 8 8.89543 8 10C8 11.1046 8.89543 12 10 12C11.1046 12 12 11.1046 12 10C12 8.89543 11.1046 8 10 8ZM6 10C6 7.79086 7.79086 6 10 6C12.2091 6 14 7.79086 14 10C14 12.2091 12.2091 14 10 14C7.79086 14 6 12.2091 6 10Z"/>
</symbol><symbol viewBox="0 0 24 24" id="arrow" xmlns="http://www.w3.org/2000/svg">
<path fill-rule="evenodd" clip-rule="evenodd" d="M11.2929 8.29289C11.6834 7.90237 12.3166 7.90237 12.7071 8.29289L18.7071 14.2929C19.0976 14.6834 19.0976 15.3166 18.7071 15.7071C18.3166 16.0976 17.6834 16.0976 17.2929 15.7071L12 10.4142L6.70711 15.7071C6.31658 16.0976 5.68342 16.0976 5.29289 15.7071C4.90237 15.3166 4.90237 14.6834 5.29289 14.2929L11.2929 8.29289Z"/>
</symbol><symbol viewBox="0 0 22 18" id="email" xmlns="http://www.w3.org/2000/svg">
<path fill-rule="evenodd" clip-rule="evenodd" d="M3 2C2.45228 2 2 2.45228 2 3V15C2 15.5477 2.45228 16 3 16H19C19.5477 16 20 15.5477 20 15V3C20 2.45228 19.5477 2 19 2H3ZM0 3C0 1.34772 1.34772 0 3 0H19C20.6523 0 22 1.34772 22 3V15C22 16.6523 20.6523 18 19 18H3C1.34772 18 0 16.6523 0 15V3Z"/>
<path fill-rule="evenodd" clip-rule="evenodd" d="M0.180732 2.42662C0.497446 1.97417 1.12098 1.86414 1.57343 2.18085L11 8.77943L20.4265 2.18085C20.879 1.86414 21.5025 1.97417 21.8192 2.42662C22.1359 2.87907 22.0259 3.5026 21.5734 3.81932L11.5734 10.8193C11.2291 11.0603 10.7708 11.0603 10.4265 10.8193L0.426501 3.81932C-0.0259479 3.5026 -0.135983 2.87907 0.180732 2.42662Z"/>
</symbol><symbol viewBox="0 0 21 21" id="fb" xmlns="http://www.w3.org/2000/svg">
<g clip-path="url(#dclip0_1_24)">
<path fill-rule="evenodd" clip-rule="evenodd" d="M10.4599 20.9999L10.4693 21H10.466L10.4599 20.9999ZM10.534 21H10.5307L10.5401 20.9999L10.534 21ZM10.4278 20.9998L10.4379 20.9998H10.4321L10.4278 20.9998ZM10.5679 20.9998H10.5621L10.5722 20.9998L10.5679 20.9998ZM10.3969 20.9995L10.4037 20.9995L10.3982 20.9995H10.3969ZM10.6018 20.9995L10.5963 20.9995L10.6031 20.9995H10.6018ZM10.6356 20.9991L10.6333 20.9992L10.6424 20.9991L10.6356 20.9991ZM10.3576 20.9991L10.3667 20.9992L10.3644 20.9991L10.3576 20.9991ZM10.6695 20.9986L10.6639 20.9987L10.6752 20.9986L10.6695 20.9986ZM10.3248 20.9986L10.3361 20.9987L10.3305 20.9986L10.3248 20.9986ZM10.7033 20.9981L10.6958 20.9982L10.7062 20.998L10.7033 20.9981ZM10.2938 20.998L10.3042 20.9982L10.2967 20.9981L10.2938 20.998ZM10.2553 20.9972L10.2646 20.9974L10.2629 20.9974L10.2553 20.9972ZM10.7371 20.9974L10.7354 20.9974L10.7447 20.9972L10.7371 20.9974ZM10.2216 20.9963L10.2343 20.9967L10.2292 20.9966L10.2216 20.9963ZM10.7708 20.9966L10.7657 20.9967L10.7784 20.9963L10.7708 20.9966ZM10.8046 20.9957L10.7963 20.9959L10.8093 20.9955L10.8046 20.9957ZM10.1907 20.9955L10.2037 20.9959L10.1954 20.9957L10.1907 20.9955ZM10.1612 20.9946L10.1704 20.9949L10.1617 20.9946L10.1537 20.9944L10.1612 20.9946ZM10.8383 20.9946L10.8296 20.9949L10.8388 20.9946L10.8463 20.9944L10.8383 20.9946ZM10.872 20.9935L10.8674 20.9937L10.8815 20.9932L10.872 20.9935ZM10.1185 20.9932L10.1326 20.9937L10.128 20.9935L10.1185 20.9932ZM10.0878 20.992L10.1026 20.9926L10.0944 20.9923L10.0878 20.992ZM10.9056 20.9923L10.8974 20.9926L10.9122 20.992L10.9056 20.9923ZM10.0576 20.9908L10.0721 20.9914L10.0608 20.991L10.0576 20.9908ZM10.9392 20.991L10.9279 20.9914L10.9424 20.9908L10.9392 20.991ZM10.0154 20.989L10.0309 20.9897L10.0271 20.9895L10.0154 20.989ZM10.9729 20.9895L10.9691 20.9897L10.9846 20.989L10.9729 20.9895ZM9.98505 20.9876L10.0012 20.9883L9.99358 20.988L9.98505 20.9876ZM11.0064 20.988L10.9988 20.9883L11.015 20.9876L11.0064 20.988ZM9.95519 20.9861L9.97147 20.9869L9.96003 20.9863L9.95519 20.9861ZM11.04 20.9863L11.0285 20.9869L11.0448 20.9861L11.04 20.9863ZM11.0735 20.9846L11.0587 20.9854L11.0718 20.9847L11.0873 20.9838L11.0735 20.9846ZM9.92816 20.9847L9.94133 20.9854L9.92648 20.9846L9.91266 20.9838L9.92816 20.9847ZM11.107 20.9827L11.1004 20.9831L11.1171 20.9821L11.107 20.9827ZM9.88292 20.9821L9.89957 20.9831L9.89301 20.9827L9.88292 20.9821ZM9.85331 20.9804L9.86992 20.9813L9.85954 20.9808L9.85331 20.9804ZM11.1405 20.9808L11.1301 20.9813L11.1467 20.9804L11.1405 20.9808ZM9.82505 20.9786L9.84002 20.9795L9.82607 20.9787L9.81205 20.9778L9.82505 20.9786ZM11.1739 20.9787L11.16 20.9795L11.175 20.9786L11.188 20.9778L11.1739 20.9787ZM11.2073 20.9765L11.2023 20.9768L11.2182 20.9758L11.2073 20.9765ZM9.78182 20.9758L9.79769 20.9768L9.79269 20.9765L9.78182 20.9758ZM9.75224 20.9737L9.76783 20.9748L9.7593 20.9742L9.75224 20.9737ZM11.2407 20.9742L11.2322 20.9748L11.2478 20.9737L11.2407 20.9742ZM9.72275 20.9716L9.73707 20.9726L9.72595 20.9719L9.72275 20.9716ZM11.274 20.9719L11.2629 20.9726L11.2772 20.9716L11.274 20.9719ZM9.68309 20.9686L9.69564 20.9696L9.69261 20.9694L9.68309 20.9686ZM11.3074 20.9694L11.3044 20.9696L11.3169 20.9686L11.3074 20.9694ZM11.3407 20.9668L11.3347 20.9672L11.3474 20.9662L11.3407 20.9668ZM9.65258 20.9662L9.66533 20.9672L9.65934 20.9668L9.65258 20.9662ZM9.62284 20.9638L9.63367 20.9647L9.62604 20.9641L9.62284 20.9638ZM11.374 20.9641L11.3663 20.9647L11.3772 20.9638L11.374 20.9641ZM9.59011 20.961L9.59335 20.9613L9.59282 20.9613L9.59011 20.961ZM11.4072 20.9613L11.4067 20.9613L11.4099 20.961L11.4072 20.9613ZM11.4404 20.9584L11.4375 20.9586L11.4449 20.958L11.4404 20.9584ZM9.55512 20.958L9.56255 20.9586L9.55959 20.9584L9.55512 20.958ZM9.52436 20.9552L9.5299 20.9557L9.52645 20.9554L9.52436 20.9552ZM11.4735 20.9554L11.4701 20.9557L11.4756 20.9552L11.4735 20.9554ZM8.85938 20.8723C3.84238 20.0838 0 15.737 0 10.5C0 4.7049 4.7049 0 10.5 0C16.2951 0 21 4.7049 21 10.5C21 15.737 17.1576 20.0838 12.1406 20.8723V13.5352H14.5872L15.0527 10.5H12.1406V8.53039C12.1406 7.70003 12.5474 6.89062 13.8518 6.89062H15.1758V4.30664C15.1758 4.30664 13.9742 4.10156 12.8254 4.10156C10.427 4.10156 8.85938 5.55516 8.85938 8.18672V10.5H6.19336V13.5352H8.85938V20.8723Z"/>
</g>
<defs>
<clipPath id="dclip0_1_24">
<rect width="21" height="21"/>
</clipPath>
</defs>
</symbol><symbol viewBox="0 0 21 21" id="inst" xmlns="http://www.w3.org/2000/svg">
<path d="M16.8844 5.911C16.8844 6.06121 16.8548 6.20996 16.7973 6.34873C16.7399 6.48752 16.6555 6.61362 16.5494 6.71984C16.4432 6.82606 16.3171 6.91031 16.1782 6.9678C16.0395 7.02529 15.8908 7.05488 15.7406 7.05488C15.5903 7.05488 15.4416 7.02529 15.3028 6.9678C15.164 6.91031 15.0379 6.82606 14.9317 6.71984C14.8254 6.61362 14.7412 6.48752 14.6838 6.34873C14.6262 6.20996 14.5967 6.06121 14.5967 5.911C14.5967 5.60762 14.7171 5.31667 14.9317 5.10215C15.1463 4.88763 15.4372 4.76711 15.7406 4.76711C16.0439 4.76711 16.3349 4.88763 16.5494 5.10215C16.7639 5.31667 16.8844 5.60762 16.8844 5.911ZM20.5162 11.0745V11.0893L20.4507 15.235C20.4341 16.7301 19.8327 18.1593 18.7755 19.2166C17.7185 20.274 16.2894 20.8756 14.7943 20.8927L10.6338 20.9569H10.619L6.47335 20.8914C4.97824 20.8747 3.54905 20.2734 2.49168 19.2164C1.43429 18.1592 0.832716 16.7301 0.8157 15.235L0.751465 11.0745V11.0597L0.816935 6.91405C0.833624 5.41894 1.43488 3.98975 2.49204 2.93238C3.54919 1.87499 4.97824 1.27342 6.47335 1.25641L10.6338 1.19217H10.6486L14.7943 1.25764C16.2894 1.27433 17.7186 1.87559 18.7759 2.93274C19.8333 3.98989 20.4349 5.41894 20.452 6.91405L20.5162 11.0745ZM18.6756 11.0745L18.6114 6.94247C18.5998 5.92616 18.1909 4.95475 17.4723 4.23607C16.7536 3.5174 15.7822 3.10855 14.7659 3.097L10.6338 3.03276L6.50176 3.097C5.48546 3.10855 4.51405 3.5174 3.79537 4.23607C3.0767 4.95475 2.66784 5.92616 2.65629 6.94247L2.59206 11.0745L2.65629 15.2066C2.66784 16.2229 3.0767 17.1943 3.79537 17.913C4.51405 18.6317 5.48546 19.0405 6.50176 19.0521L10.6338 19.1163L14.7659 19.0521C15.7822 19.0405 16.7536 18.6317 17.4723 17.913C18.1909 17.1943 18.5998 16.2229 18.6114 15.2066L18.6756 11.0745ZM15.7084 11.0745C15.7084 12.4204 15.1738 13.7111 14.2221 14.6628C13.2705 15.6145 11.9797 16.1491 10.6338 16.1491C9.28796 16.1491 7.99721 15.6145 7.04554 14.6628C6.09387 13.7111 5.55923 12.4204 5.55923 11.0745C5.55923 9.72866 6.09387 8.43791 7.04554 7.48624C7.99721 6.53457 9.28796 5.99994 10.6338 5.99994C11.9797 5.99994 13.2705 6.53457 14.2221 7.48624C15.1738 8.43791 15.7084 9.72866 15.7084 11.0745ZM13.8678 11.0745C13.8678 10.2168 13.5272 9.39423 12.9206 8.78774C12.3141 8.18124 11.4915 7.84052 10.6338 7.84052C9.77611 7.84052 8.95353 8.18124 8.34703 8.78774C7.74054 9.39423 7.39982 10.2168 7.39982 11.0745C7.39982 11.9322 7.74054 12.7548 8.34703 13.3613C8.95353 13.9678 9.77611 14.3085 10.6338 14.3085C11.4915 14.3085 12.3141 13.9678 12.9206 13.3613C13.5272 12.7548 13.8678 11.9322 13.8678 11.0745Z"/>
</symbol><symbol viewBox="0 0 40 40" id="layout" xmlns="http://www.w3.org/2000/svg">
<path fill-rule="evenodd" clip-rule="evenodd" d="M8.33333 6C7.04467 6 6 7.04467 6 8.33333V31.6667C6 32.9553 7.04467 34 8.33333 34H31.6667C32.9553 34 34 32.9553 34 31.6667V8.33333C34 7.04467 32.9553 6 31.6667 6H8.33333ZM4 8.33333C4 5.9401 5.9401 4 8.33333 4H31.6667C34.0599 4 36 5.9401 36 8.33333V31.6667C36 34.0599 34.0599 36 31.6667 36H8.33333C5.9401 36 4 34.0599 4 31.6667V8.33333Z"/>
<path fill-rule="evenodd" clip-rule="evenodd" d="M4 15C4 14.4477 4.44772 14 5 14H35C35.5523 14 36 14.4477 36 15C36 15.5523 35.5523 16 35 16H5C4.44772 16 4 15.5523 4 15Z"/>
<path fill-rule="evenodd" clip-rule="evenodd" d="M15 14C15.5523 14 16 14.4477 16 15V35C16 35.5523 15.5523 36 15 36C14.4477 36 14 35.5523 14 35V15C14 14.4477 14.4477 14 15 14Z"/>
</symbol><symbol viewBox="0 0 38 34" id="liked" xmlns="http://www.w3.org/2000/svg">
<path d="M33.7333 4.68332C32.8821 3.83166 31.8714 3.15607 30.7589 2.69513C29.6465 2.23419 28.4541 1.99695 27.25 1.99695C26.0459 1.99695 24.8535 2.23419 23.7411 2.69513C22.6286 3.15607 21.6179 3.83166 20.7667 4.68332L19 6.44999L17.2333 4.68332C15.5138 2.96384 13.1817 1.99784 10.75 1.99784C8.31827 1.99784 5.98615 2.96384 4.26666 4.68332C2.54717 6.40281 1.58118 8.73494 1.58118 11.1667C1.58118 13.5984 2.54717 15.9305 4.26666 17.65L6.03333 19.4167L19 32.3833L31.9667 19.4167L33.7333 17.65C34.585 16.7987 35.2606 15.788 35.7215 14.6756C36.1825 13.5632 36.4197 12.3708 36.4197 11.1667C36.4197 9.96251 36.1825 8.77016 35.7215 7.65773C35.2606 6.5453 34.585 5.53458 33.7333 4.68332V4.68332Z" stroke-width="2" stroke-linecap="round" stroke-linejoin="round"/>
</symbol><symbol id="phone" viewBox="0 0 202.592 202.592" xml:space="preserve" xmlns="http://www.w3.org/2000/svg">
<g>
	<g>
		<path d="M198.048,160.105l-31.286-31.29c-6.231-6.206-16.552-6.016-23.001,0.433l-15.761,15.761    c-0.995-0.551-2.026-1.124-3.11-1.732c-9.953-5.515-23.577-13.074-37.914-27.421C72.599,101.48,65.03,87.834,59.5,77.874    c-0.587-1.056-1.145-2.072-1.696-3.038l10.579-10.565l5.2-5.207c6.46-6.46,6.639-16.778,0.419-23.001L42.715,4.769    c-6.216-6.216-16.541-6.027-23.001,0.433l-8.818,8.868l0.243,0.24c-2.956,3.772-5.429,8.124-7.265,12.816    c-1.696,4.466-2.752,8.729-3.235,12.998c-4.13,34.25,11.52,65.55,53.994,108.028c58.711,58.707,106.027,54.273,108.067,54.055    c4.449-0.53,8.707-1.593,13.038-3.275c4.652-1.818,9.001-4.284,12.769-7.233l0.193,0.168l8.933-8.747    C204.079,176.661,204.265,166.343,198.048,160.105z M190.683,176.164l-3.937,3.93l-1.568,1.507    c-2.469,2.387-6.743,5.74-12.984,8.181c-3.543,1.364-7.036,2.24-10.59,2.663c-0.447,0.043-44.95,3.84-100.029-51.235    C14.743,94.38,7.238,67.395,10.384,41.259c0.394-3.464,1.263-6.95,2.652-10.593c2.462-6.277,5.812-10.547,8.181-13.02l5.443-5.497    c2.623-2.63,6.714-2.831,9.112-0.433l31.286,31.286c2.394,2.401,2.205,6.492-0.422,9.13L45.507,73.24l1.95,3.282    c1.084,1.829,2.23,3.879,3.454,6.106c5.812,10.482,13.764,24.83,29.121,40.173c15.317,15.325,29.644,23.27,40.094,29.067    c2.258,1.249,4.32,2.398,6.17,3.5l3.289,1.95l21.115-21.122c2.634-2.623,6.739-2.817,9.137-0.426l31.272,31.279    C193.5,169.446,193.31,173.537,190.683,176.164z"/>
	</g>
</g>
</symbol><symbol viewBox="0 0 40 40" id="search" xmlns="http://www.w3.org/2000/svg">
<path fill-rule="evenodd" clip-rule="evenodd" d="M18.3333 6C11.5218 6 6 11.5218 6 18.3333C6 25.1448 11.5218 30.6667 18.3333 30.6667C25.1448 30.6667 30.6667 25.1448 30.6667 18.3333C30.6667 11.5218 25.1448 6 18.3333 6ZM4 18.3333C4 10.4173 10.4173 4 18.3333 4C26.2494 4 32.6667 10.4173 32.6667 18.3333C32.6667 26.2494 26.2494 32.6667 18.3333 32.6667C10.4173 32.6667 4 26.2494 4 18.3333Z"/>
<path fill-rule="evenodd" clip-rule="evenodd" d="M27.0429 27.0429C27.4334 26.6524 28.0666 26.6524 28.4571 27.0429L35.7071 34.2929C36.0976 34.6834 36.0976 35.3166 35.7071 35.7071C35.3166 36.0976 34.6834 36.0976 34.2929 35.7071L27.0429 28.4571C26.6524 28.0666 26.6524 27.4334 27.0429 27.0429Z"/>
</symbol><symbol viewBox="0 0 40 40" id="sound" xmlns="http://www.w3.org/2000/svg">
<path fill-rule="evenodd" clip-rule="evenodd" d="M18.7665 7.43208C19.113 7.5986 19.3333 7.94898 19.3333 8.33338V31.6667C19.3333 32.0511 19.113 32.4015 18.7665 32.568C18.42 32.7345 18.0088 32.6877 17.7086 32.4476L9.6492 26.0001H3.33331C2.78103 26.0001 2.33331 25.5523 2.33331 25.0001V15.0001C2.33331 14.4478 2.78103 14.0001 3.33331 14.0001H9.6492L17.7086 7.55251C18.0088 7.31238 18.42 7.26556 18.7665 7.43208ZM17.3333 10.414L10.6247 15.7809C10.4474 15.9228 10.2271 16.0001 9.99998 16.0001H4.33331V24.0001H9.99998C10.2271 24.0001 10.4474 24.0773 10.6247 24.2192L17.3333 29.5861V10.414Z"/>
<path fill-rule="evenodd" clip-rule="evenodd" d="M31.0763 7.50946C31.4669 7.119 32.1 7.11909 32.4905 7.50967C35.8025 10.8227 37.6631 15.3154 37.6631 20C37.6631 24.6846 35.8025 29.1774 32.4905 32.4903C32.1 32.8809 31.4669 32.881 31.0763 32.4906C30.6857 32.1001 30.6856 31.4669 31.0761 31.0763C34.0131 28.1384 35.6631 24.1542 35.6631 20C35.6631 15.8458 34.0131 11.8616 31.0761 8.92367C30.6856 8.53309 30.6857 7.89993 31.0763 7.50946ZM25.193 13.3928C25.5835 13.0023 26.2167 13.0024 26.6072 13.393C28.3569 15.1433 29.3399 17.5168 29.3399 19.9917C29.3399 22.4665 28.3569 24.8401 26.6072 26.5903C26.2167 26.9809 25.5835 26.981 25.193 26.5906C24.8024 26.2001 24.8023 25.5669 25.1927 25.1763C26.5675 23.8011 27.3399 21.9362 27.3399 19.9917C27.3399 18.0471 26.5675 16.1822 25.1927 14.807C24.8023 14.4164 24.8024 13.7833 25.193 13.3928Z"/>
</symbol><symbol viewBox="0 0 24 20" id="twiter" xmlns="http://www.w3.org/2000/svg">
<path d="M24 2.36749C23.1177 2.76965 22.1682 3.04092 21.1719 3.16231C22.1891 2.53784 22.9691 1.54868 23.3369 0.368687C22.3855 0.947694 21.3322 1.36784 20.2102 1.59464C19.3123 0.613478 18.0325 0 16.6163 0C13.8973 0 11.6928 2.26058 11.6928 5.04921C11.6928 5.44437 11.7362 5.82954 11.8205 6.19973C7.72815 5.98891 4.09963 3.97912 1.67103 0.924214C1.24718 1.66958 1.00457 2.53684 1.00457 3.46306C1.00457 5.21457 1.8737 6.76025 3.19493 7.66548C2.38816 7.63901 1.62865 7.4117 0.964618 7.03352C0.964131 7.0545 0.964131 7.07599 0.964131 7.09747C0.964131 9.54339 2.66147 11.5837 4.9142 12.0483C4.50107 12.1632 4.06601 12.2251 3.61683 12.2251C3.29919 12.2251 2.9908 12.1936 2.69021 12.1342C3.31722 14.14 5.13538 15.6002 7.28969 15.6407C5.60453 16.9951 3.48188 17.8024 1.17459 17.8024C0.777541 17.8024 0.38536 17.7784 0 17.7314C2.17965 19.1647 4.76755 20 7.5479 20C16.6051 20 21.5573 12.3065 21.5573 5.63421C21.5573 5.4154 21.5529 5.19708 21.5436 4.98027C22.5053 4.26987 23.3404 3.38013 24 2.36749Z"/>
</symbol></svg>